HIERARCHY
ROOT Hips
{
 OFFSET 0.000000 0.000000 0.000000
 CHANNELS 6 Xposition Yposition Zposition Yrotation Xrotation Zrotation
 JOINT Chest
 {
  OFFSET 0.000000 10.388337 0.005184
  CHANNELS 3 Yrotation Xrotation Zrotation
  JOINT Chest2
  {
   OFFSET 0.000000 10.458247 -0.010579
   CHANNELS 3 Yrotation Xrotation Zrotation
   JOINT Chest3
   {
    OFFSET 0.000000 10.415828 0.000000
    CHANNELS 3 Yrotation Xrotation Zrotation
    JOINT Chest4
    {
     OFFSET 0.000000 10.405206 0.000000
     CHANNELS 3 Yrotation Xrotation Zrotation
     JOINT Neck
     {
      OFFSET 0.000000 15.720090 0.000000
      CHANNELS 3 Yrotation Xrotation Zrotation
      JOINT Head
      {
       OFFSET 0.000000 9.732643 -0.022378
       CHANNELS 3 Yrotation Xrotation Zrotation
       End Site
       {
        OFFSET 0.000000 18.603619 -0.011814
       }
      }
     }
     JOINT RightCollar
     {
      OFFSET -3.167735 10.388953 0.000000
      CHANNELS 3 Yrotation Xrotation Zrotation
      JOINT RightShoulder
      {
       OFFSET -14.584825 0.000000 0.000000
       CHANNELS 3 Yrotation Xrotation Zrotation
       JOINT RightElbow
       {
        OFFSET 0.000000 -31.921689 0.000000
        CHANNELS 3 Yrotation Xrotation Zrotation
        JOINT RightWrist
        {
         OFFSET 0.000000 -25.835217 0.000000
         CHANNELS 3 Yrotation Xrotation Zrotation
         End Site
         {
          OFFSET 0.000000 -19.128920 0.000000
         }
        }
       }
      }
     }
     JOINT LeftCollar
     {
      OFFSET 3.167735 10.388953 0.000000
      CHANNELS 3 Yrotation Xrotation Zrotation
      JOINT LeftShoulder
      {
       OFFSET 14.584825 0.000000 0.000000
       CHANNELS 3 Yrotation Xrotation Zrotation
       JOINT LeftElbow
       {
        OFFSET 0.000000 -31.921689 0.000000
        CHANNELS 3 Yrotation Xrotation Zrotation
        JOINT LeftWrist
        {
         OFFSET 0.000000 -25.835217 0.000000
         CHANNELS 3 Yrotation Xrotation Zrotation
         End Site
         {
          OFFSET 0.000000 -19.128920 0.000000
         }
        }
       }
      }
     }
    }
   }
  }
 }
 JOINT RightHip
 {
  OFFSET -8.403278 -0.025659 -0.002592
  CHANNELS 3 Yrotation Xrotation Zrotation
  JOINT RightKnee
  {
   OFFSET 0.000000 -44.040977 0.002477
   CHANNELS 3 Yrotation Xrotation Zrotation
   JOINT RightAnkle
   {
    OFFSET 0.000000 -42.951162 0.004189
    CHANNELS 3 Yrotation Xrotation Zrotation
    JOINT RightToe
    {
     OFFSET 0.000000 -5.494238 12.197485
     CHANNELS 3 Yrotation Xrotation Zrotation
     End Site
     {
      OFFSET 0.000000 -1.538716 6.371628
     }
    }
   }
  }
 }
 JOINT LeftHip
 {
  OFFSET 8.403278 -0.025659 -0.002592
  CHANNELS 3 Yrotation Xrotation Zrotation
  JOINT LeftKnee
  {
   OFFSET 0.000000 -44.040977 0.002477
   CHANNELS 3 Yrotation Xrotation Zrotation
   JOINT LeftAnkle
   {
    OFFSET 0.000000 -42.951162 0.004189
    CHANNELS 3 Yrotation Xrotation Zrotation
    JOINT LeftToe
    {
     OFFSET 0.000000 -5.494238 12.197485
     CHANNELS 3 Yrotation Xrotation Zrotation
     End Site
     {
      OFFSET 0.000000 -1.538716 6.371628
     }
    }
   }
  }
 }
}
MOTION
Frames: 12
Frame Time: 0.008333
0.000000 92.319940 0.000000 0.000000 -5.767889 0.000000 0.000000 11.653876 0.000000 0.000000 -5.885988 0.000000 0.000000 -0.000000 0.000000 0.000000 -0.000000 0.000000 0.000000 12.528808 0.000000 0.000000 0.711711 0.000000 0.000000 -0.000000 0.000000 0.000000 0.000000 -90.000000 0.000000 -2.309063 0.000000 0.000000 2.309063 0.000000 0.000000 -0.000000 0.000000 0.000000 -0.000000 90.000000 0.000000 -2.309063 0.000000 0.000000 2.309063 0.000000 0.000000 8.520374 0.000000 0.000000 1.905768 0.000000 -0.000000 -4.658254 0.000000 0.000000 -0.000000 0.000000 0.000000 8.520374 0.000000 0.000000 1.905768 0.000000 -0.000000 -4.658254 0.000000 0.000000 -0.000000 0.000000
23.400463 93.471885 12.470669 120.677361 -4.059437 0.545044 -1.142013 1.091885 -0.279275 -0.010773 0.010560 -0.004501 -0.019472 0.019086 -0.008137 -1.112858 1.081972 -0.473549 -2.217100 14.985181 3.002817 -5.262262 -7.772964 6.440664 -0.111226 3.883128 0.500631 -0.402405 2.331598 -3.284012 8.511261 -5.544213 -1.735822 -1.170504 -0.963652 0.799975 2.145608 0.847855 2.230874 -7.565860 -2.716650 1.691234 -6.198386 -2.783334 -7.801301 2.604812 -1.063004 3.180685 -2.032230 6.185937 -1.451437 -12.259834 3.623019 -0.351081 2.211451 -5.461013 1.745399 -0.017083 0.168242 -0.002493 1.515935 11.480146 0.359399 19.944404 -3.188785 -1.598783 -8.182437 -4.106062 -0.089610 -0.000323 -0.148975 0.012749
23.408598 93.471320 12.466460 120.771119 -4.057442 0.539822 -1.151077 1.091578 -0.281444 -0.010902 0.010596 -0.004541 -0.019705 0.019150 -0.008209 -1.121691 1.081292 -0.475891 -2.202486 14.992366 3.003586 -5.234727 -7.760693 6.436215 -0.104119 3.836345 0.522163 -0.438455 2.359829 -3.318491 8.718959 -5.603552 -1.762738 -1.120694 -0.979582 0.772900 2.155644 0.845051 2.232442 -7.607542 -2.686100 1.670242 -6.242134 -2.762943 -7.799484 2.598994 -1.046867 3.170043 -2.062138 6.209894 -1.444339 -12.284050 3.600729 -0.350278 2.180239 -5.462407 1.756118 -0.016040 0.164878 -0.008290 1.495435 11.509267 0.366534 19.926675 -3.257631 -1.615174 -8.214446 -4.069607 -0.092404 0.000097 -0.148552 0.013267
23.417793 93.470682 12.461879 120.867197 -4.055513 0.533674 -1.161201 1.089588 -0.284393 -0.011048 0.010621 -0.004580 -0.019968 0.019194 -0.008280 -1.132050 1.079321 -0.478074 -2.188830 15.001162 3.003848 -5.208679 -7.745399 6.431065 -0.091515 3.789046 0.544384 -0.462232 2.389564 -3.355370 8.934992 -5.666851 -1.791179 -1.064196 -0.995180 0.743745 2.173707 0.844651 2.235573 -7.649876 -2.651569 1.649461 -6.288590 -2.731727 -7.788440 2.589191 -1.031897 3.157303 -2.083710 6.233131 -1.435496 -12.306152 3.582263 -0.350141 2.139724 -5.466146 1.771315 -0.015386 0.161395 -0.015650 1.480001 11.538709 0.378579 19.913826 -3.324057 -1.635984 -8.260232 -4.034680 -0.093409 0.000658 -0.147950 0.013421
23.427430 93.469992 12.457014 120.966601 -4.053747 0.526851 -1.170484 1.087487 -0.288194 -0.011188 0.010644 -0.004615 -0.020220 0.019236 -0.008342 -1.141935 1.077476 -0.479834 -2.178392 15.010046 3.003600 -5.188454 -7.729733 6.426147 -0.079359 3.742930 0.564566 -0.471224 2.416225 -3.389994 9.145242 -5.733176 -1.818351 -1.003369 -1.010370 0.711063 2.191835 0.845080 2.239753 -7.691466 -2.611540 1.627966 -6.336360 -2.693870 -7.767564 2.580782 -1.017698 3.147833 -2.097911 6.255855 -1.424015 -12.336662 3.566257 -0.353693 2.100523 -5.472087 1.790541 -0.015292 0.158150 -0.022973 1.468915 11.567422 0.396688 19.900592 -3.386096 -1.661525 -8.322781 -4.002631 -0.092227 0.000871 -0.146723 0.013138
23.436876 93.469270 12.451793 121.066023 -4.052361 0.520346 -1.176711 1.087208 -0.293335 -0.011296 0.010685 -0.004659 -0.020416 0.019310 -0.008421 -1.148864 1.077697 -0.482662 -2.170760 15.017672 3.004099 -5.173836 -7.716134 6.423745 -0.071779 3.697203 0.584365 -0.470239 2.437832 -3.421011 9.346588 -5.801946 -1.841856 -0.951687 -1.021928 0.677413 2.205439 0.843956 2.246201 -7.729594 -2.566413 1.605330 -6.384815 -2.651212 -7.738231 2.578493 -1.003471 3.145196 -2.102886 6.278649 -1.410685 -12.383727 3.550547 -0.360279 2.067558 -5.478844 1.811648 -0.015192 0.155479 -0.029165 1.464737 11.595777 0.418885 19.879539 -3.444778 -1.690753 -8.390883 -3.972162 -0.089956 0.000505 -0.145746 0.013434
23.445664 93.468520 12.446276 121.164488 -4.051327 0.513712 -1.183094 1.087385 -0.299082 -0.011415 0.010738 -0.004713 -0.020630 0.019404 -0.008519 -1.156167 1.078459 -0.486247 -2.163377 15.025408 3.005071 -5.159852 -7.702276 6.422314 -0.062142 3.653990 0.605968 -0.460328 2.456877 -3.450695 9.523686 -5.875205 -1.855173 -0.915712 -1.027389 0.647324 2.221879 0.844984 2.255802 -7.763866 -2.519952 1.579749 -6.432082 -2.601095 -7.699491 2.579214 -0.990496 3.144997 -2.102299 6.302958 -1.397000 -12.436205 3.531880 -0.365597 2.033838 -5.483857 1.832164 -0.014486 0.153116 -0.033973 1.466105 11.622587 0.442052 19.848356 -3.500076 -1.719663 -8.450306 -3.943222 -0.087827 0.000103 -0.144824 0.014391
23.453675 93.467769 12.440148 121.262831 -4.052637 0.507215 -1.193167 1.087701 -0.303933 -0.011586 0.010802 -0.004773 -0.020937 0.019519 -0.008627 -1.166984 1.078838 -0.489771 -2.154575 15.034350 3.005336 -5.142872 -7.686338 6.418961 -0.044023 3.613031 0.628925 -0.439418 2.477498 -3.482300 9.656835 -5.956919 -1.850356 -0.895335 -1.028941 0.624214 2.247106 0.850512 2.267320 -7.795828 -2.470900 1.548700 -6.473941 -2.544178 -7.649976 2.580952 -0.976434 3.143608 -2.104915 6.331596 -1.383604 -12.487966 3.508052 -0.371111 2.001474 -5.486109 1.852410 -0.013431 0.151232 -0.037125 1.467175 11.647866 0.463038 19.809964 -3.549254 -1.744200 -8.497475 -3.918058 -0.086213 0.000249 -0.143323 0.015150
23.460800 93.467053 12.432889 121.363581 -4.058457 0.502173 -1.207368 1.089659 -0.307033 -0.011819 0.010900 -0.004841 -0.021357 0.019695 -0.008750 -1.181511 1.080389 -0.493127 -2.145100 15.044034 3.004278 -5.124100 -7.669171 6.412840 -0.018868 3.571652 0.651411 -0.410265 2.501675 -3.518120 9.744686 -6.048247 -1.824680 -0.888547 -1.030616 0.611350 2.279035 0.857294 2.278267 -7.824942 -2.414867 1.510715 -6.508848 -2.481059 -7.590501 2.584266 -0.961862 3.143099 -2.109054 6.364574 -1.370446 -12.543468 3.483441 -0.381253 1.970713 -5.488374 1.876754 -0.012517 0.150082 -0.040291 1.459979 11.673538 0.479416 19.770586 -3.591773 -1.763716 -8.538180 -3.897485 -0.085859 0.000783 -0.141190 0.016114
23.466297 93.466347 12.424693 121.468954 -4.065660 0.498833 -1.226450 1.092716 -0.308612 -0.012136 0.011035 -0.004911 -0.021928 0.019938 -0.008875 -1.201120 1.082938 -0.495468 -2.136584 15.053517 3.001544 -5.106517 -7.652422 6.403957 0.013171 3.527759 0.671949 -0.384920 2.532039 -3.560511 9.796983 -6.153392 -1.777149 -0.884447 -1.032834 0.611314 2.317813 0.859981 2.286800 -7.850507 -2.349835 1.466325 -6.538343 -2.409737 -7.523452 2.585154 -0.951579 3.147099 -2.110138 6.395447 -1.358550 -12.601398 3.464907 -0.395088 1.935584 -5.493879 1.907598 -0.012011 0.149546 -0.045460 1.441449 11.697495 0.490482 19.736617 -3.630539 -1.779953 -8.577421 -3.879435 -0.087037 0.001533 -0.138577 0.018068
23.469172 93.465612 12.416229 121.576978 -4.068438 0.496788 -1.251811 1.094563 -0.309972 -0.012551 0.011178 -0.004976 -0.022676 0.020193 -0.008991 -1.227377 1.083874 -0.496324 -2.128519 15.062527 2.996934 -5.089124 -7.636650 6.391771 0.054988 3.482786 0.690317 -0.369210 2.567821 -3.608447 9.817889 -6.275095 -1.706443 -0.876259 -1.032503 0.624059 2.367744 0.856347 2.293824 -7.872731 -2.273793 1.417042 -6.562288 -2.329631 -7.449991 2.586127 -0.948609 3.153374 -2.104659 6.416992 -1.348610 -12.661905 3.454191 -0.409269 1.895277 -5.502652 1.941917 -0.011873 0.149603 -0.051481 1.417793 11.714433 0.499803 19.711936 -3.666157 -1.796387 -8.631176 -3.862292 -0.087711 0.001940 -0.135771 0.019921
23.469543 93.464904 12.407737 121.684592 -4.067333 0.495169 -1.283803 1.095467 -0.311681 -0.013082 0.011337 -0.005046 -0.023631 0.020478 -0.009117 -1.260796 1.083482 -0.496489 -2.118799 15.071697 2.990202 -5.067853 -7.620852 6.375006 0.108247 3.440663 0.707674 -0.360964 2.600791 -3.660172 9.809817 -6.408754 -1.611255 -0.869988 -1.027529 0.645929 2.429703 0.849792 2.302796 -7.887271 -2.187029 1.362905 -6.578596 -2.244510 -7.370159 2.590079 -0.948174 3.157813 -2.088526 6.430972 -1.338864 -12.723373 3.448181 -0.423921 1.848362 -5.512402 1.978688 -0.011545 0.149741 -0.057423 1.396449 11.724832 0.509611 19.700142 -3.697421 -1.815103 -8.701743 -3.846793 -0.085882 0.001919 -0.132444 0.020927
